<?xml version="1.0" encoding="UTF-8" standalone="no"?><!DOCTYPE svg PUBLIC "-//W3C//DTD SVG 1.1//EN" "http://www.w3.org/Graphics/SVG/1.1/DTD/svg11.dtd"><svg width="100%" height="100%" viewBox="0 0 29 31" version="1.1" xmlns="http://www.w3.org/2000/svg" xmlns:xlink="http://www.w3.org/1999/xlink" xml:space="preserve" xmlns:serif="http://www.serif.com/" style="fill-rule:evenodd;clip-rule:evenodd;stroke-linecap:round;stroke-linejoin:round;stroke-miterlimit:1.5;"><g><path d="M11.428,1.828l2.803,-1.578l2.802,1.578l-2.802,1.579l-2.803,-1.579Z" style="fill:#4b5dce;stroke:#000;stroke-width:0.5px;"/><path d="M14.231,16.035l-2.803,-1.579l0,-12.628l2.803,1.579l-0,12.628Z" style="fill:#8e9cf6;stroke:#000;stroke-width:0.5px;"/><path d="M17.033,1.828l0,12.628l-2.802,1.579l-0,-12.628l2.802,-1.579Z" style="fill:#31409c;stroke:#000;stroke-width:0.5px;"/><path d="M19.9,12.878l-0,6.314l5.605,-3.157l0,-6.314l-5.605,3.157Z" style="fill:#58619a;stroke:#000;stroke-width:0.5px;"/><path d="M19.9,6.564l5.605,3.157l-5.605,3.157l-5.605,-3.157l5.605,-3.157" style="fill:#7283eb;stroke:#000;stroke-width:0.5px;"/><path d="M14.295,9.721l-0,6.314l5.605,3.157l-0,-6.314l-5.605,-3.157Z" style="fill:#a0abf3;stroke:#000;stroke-width:0.5px;"/><path d="M8.626,12.878l-0,6.314l5.605,-3.157l-0,-6.314l-5.605,3.157Z" style="fill:#58619a;stroke:#000;stroke-width:0.5px;"/><path d="M8.626,6.564l5.605,3.157l-5.605,3.157l-5.606,-3.157l5.606,-3.157" style="fill:#7283eb;stroke:#000;stroke-width:0.5px;"/><path d="M3.02,9.721l0,6.314l5.606,3.157l-0,-6.314l-5.606,-3.157Z" style="fill:#a0abf3;stroke:#000;stroke-width:0.5px;"/><path d="M22.638,14.456l2.803,-1.578l2.802,1.578l-2.802,1.579l-2.803,-1.579Z" style="fill:#4b5dce;stroke:#000;stroke-width:0.5px;"/><path d="M25.441,28.663l-2.803,-1.579l0,-12.628l2.803,1.579l-0,12.628Z" style="fill:#8e9cf6;stroke:#000;stroke-width:0.5px;"/><path d="M28.243,14.456l0,12.628l-2.802,1.579l-0,-12.628l2.802,-1.579Z" style="fill:#31409c;stroke:#000;stroke-width:0.5px;"/><path d="M14.207,19.241l0,6.314l5.605,-3.157l0,-6.314l-5.605,3.157Z" style="fill:#58619a;stroke:#000;stroke-width:0.5px;"/><path d="M14.207,12.927l5.605,3.157l-5.605,3.157l-5.605,-3.157l5.605,-3.157" style="fill:#7283eb;stroke:#000;stroke-width:0.5px;"/><path d="M8.602,16.084l0,6.314l5.605,3.157l0,-6.314l-5.605,-3.157Z" style="fill:#a0abf3;stroke:#000;stroke-width:0.5px;"/><path d="M0.25,14.437l2.803,-1.579l2.802,1.579l-2.802,1.578l-2.803,-1.578Z" style="fill:#4b5dce;stroke:#000;stroke-width:0.5px;"/><path d="M3.053,28.643l-2.803,-1.579l0,-12.627l2.803,1.578l-0,12.628Z" style="fill:#8e9cf6;stroke:#000;stroke-width:0.5px;"/><path d="M5.855,14.437l0,12.627l-2.802,1.579l-0,-12.628l2.802,-1.578Z" style="fill:#31409c;stroke:#000;stroke-width:0.5px;"/><path d="M22.67,23.945l0,6.314l5.605,-3.157l0,-6.314l-5.605,3.157Z" style="fill:#58619a;stroke:#000;stroke-width:0.5px;"/><path d="M22.67,17.631l5.605,3.157l-5.605,3.157l-5.605,-3.157l5.605,-3.157" style="fill:#7283eb;stroke:#000;stroke-width:0.5px;"/><path d="M17.065,20.788l0,6.314l5.605,3.157l0,-6.314l-5.605,-3.157Z" style="fill:#a0abf3;stroke:#000;stroke-width:0.5px;"/><path d="M5.855,23.945l0,6.314l5.605,-3.157l0,-6.314l-5.605,3.157Z" style="fill:#58619a;stroke:#000;stroke-width:0.5px;"/><path d="M5.855,17.631l5.605,3.157l-5.605,3.157l-5.605,-3.157l5.605,-3.157" style="fill:#7283eb;stroke:#000;stroke-width:0.5px;"/><path d="M0.25,20.788l0,6.314l5.605,3.157l0,-6.314l-5.605,-3.157Z" style="fill:#a0abf3;stroke:#000;stroke-width:0.5px;"/><path d="M11.46,14.226l2.803,-1.578l2.802,1.578l-2.802,1.579l-2.803,-1.579Z" style="fill:#4b5dce;stroke:#000;stroke-width:0.5px;"/><path d="M14.263,28.432l-2.803,-1.578l0,-12.628l2.803,1.579l-0,12.627Z" style="fill:#8e9cf6;stroke:#000;stroke-width:0.5px;"/><path d="M17.065,14.226l0,12.628l-2.802,1.578l-0,-12.627l2.802,-1.579Z" style="fill:#31409c;stroke:#000;stroke-width:0.47px;"/></g></svg>