<?xml version="1.0" encoding="UTF-8" standalone="no"?><!DOCTYPE svg PUBLIC "-//W3C//DTD SVG 1.1//EN" "http://www.w3.org/Graphics/SVG/1.1/DTD/svg11.dtd"><svg width="100%" height="100%" viewBox="0 0 132 45" version="1.1" xmlns="http://www.w3.org/2000/svg" xmlns:xlink="http://www.w3.org/1999/xlink" xml:space="preserve" xmlns:serif="http://www.serif.com/" style="fill-rule:evenodd;clip-rule:evenodd;stroke-linecap:round;stroke-linejoin:round;stroke-miterlimit:1.5;"><g><path d="M17.178,9.074l2.803,-1.579l2.802,1.579l-2.802,1.578l-2.803,-1.578Z" style="fill:#4b5dce;stroke:#000;stroke-width:0.5px;"/><path d="M19.981,23.28l-2.803,-1.578l0,-12.628l2.803,1.578l-0,12.628Z" style="fill:#8e9cf6;stroke:#000;stroke-width:0.5px;"/><path d="M22.783,9.074l0,12.628l-2.802,1.578l-0,-12.628l2.802,-1.578Z" style="fill:#31409c;stroke:#000;stroke-width:0.5px;"/><path d="M25.65,20.123l-0,6.314l5.605,-3.157l0,-6.314l-5.605,3.157Z" style="fill:#58619a;stroke:#000;stroke-width:0.5px;"/><path d="M25.65,13.809l5.605,3.157l-5.605,3.157l-5.605,-3.157l5.605,-3.157" style="fill:#7283eb;stroke:#000;stroke-width:0.5px;"/><path d="M20.045,16.966l-0,6.314l5.605,3.157l-0,-6.314l-5.605,-3.157Z" style="fill:#a0abf3;stroke:#000;stroke-width:0.5px;"/><path d="M14.376,20.123l-0,6.314l5.605,-3.157l-0,-6.314l-5.605,3.157Z" style="fill:#58619a;stroke:#000;stroke-width:0.5px;"/><path d="M14.376,13.809l5.605,3.157l-5.605,3.157l-5.606,-3.157l5.606,-3.157" style="fill:#7283eb;stroke:#000;stroke-width:0.5px;"/><path d="M8.77,16.966l0,6.314l5.606,3.157l-0,-6.314l-5.606,-3.157Z" style="fill:#a0abf3;stroke:#000;stroke-width:0.5px;"/><path d="M28.388,21.702l2.803,-1.579l2.802,1.579l-2.802,1.578l-2.803,-1.578Z" style="fill:#4b5dce;stroke:#000;stroke-width:0.5px;"/><path d="M31.191,35.908l-2.803,-1.578l0,-12.628l2.803,1.578l-0,12.628Z" style="fill:#8e9cf6;stroke:#000;stroke-width:0.5px;"/><path d="M33.993,21.702l0,12.628l-2.802,1.578l-0,-12.628l2.802,-1.578Z" style="fill:#31409c;stroke:#000;stroke-width:0.5px;"/><path d="M19.957,26.486l0,6.314l5.605,-3.157l0,-6.313l-5.605,3.156Z" style="fill:#58619a;stroke:#000;stroke-width:0.5px;"/><path d="M19.957,20.173l5.605,3.157l-5.605,3.156l-5.605,-3.156l5.605,-3.157" style="fill:#7283eb;stroke:#000;stroke-width:0.5px;"/><path d="M14.352,23.33l0,6.313l5.605,3.157l0,-6.314l-5.605,-3.156Z" style="fill:#a0abf3;stroke:#000;stroke-width:0.5px;"/><path d="M6,21.682l2.803,-1.578l2.802,1.578l-2.802,1.579l-2.803,-1.579Z" style="fill:#4b5dce;stroke:#000;stroke-width:0.5px;"/><path d="M8.803,35.888l-2.803,-1.578l-0,-12.628l2.803,1.579l-0,12.627Z" style="fill:#8e9cf6;stroke:#000;stroke-width:0.5px;"/><path d="M11.605,21.682l0,12.628l-2.802,1.578l-0,-12.627l2.802,-1.579Z" style="fill:#31409c;stroke:#000;stroke-width:0.5px;"/><path d="M28.42,31.191l0,6.314l5.605,-3.157l0,-6.314l-5.605,3.157Z" style="fill:#58619a;stroke:#000;stroke-width:0.5px;"/><path d="M28.42,24.877l5.605,3.157l-5.605,3.157l-5.605,-3.157l5.605,-3.157" style="fill:#7283eb;stroke:#000;stroke-width:0.5px;"/><path d="M22.815,28.034l0,6.314l5.605,3.157l0,-6.314l-5.605,-3.157Z" style="fill:#a0abf3;stroke:#000;stroke-width:0.5px;"/><path d="M11.605,31.191l0,6.314l5.605,-3.157l0,-6.314l-5.605,3.157Z" style="fill:#58619a;stroke:#000;stroke-width:0.5px;"/><path d="M11.605,24.877l5.605,3.157l-5.605,3.157l-5.605,-3.157l5.605,-3.157" style="fill:#7283eb;stroke:#000;stroke-width:0.5px;"/><path d="M6,28.034l0,6.314l5.605,3.157l0,-6.314l-5.605,-3.157Z" style="fill:#a0abf3;stroke:#000;stroke-width:0.5px;"/><path d="M17.21,21.472l2.803,-1.579l2.802,1.579l-2.802,1.578l-2.803,-1.578Z" style="fill:#4b5dce;stroke:#000;stroke-width:0.5px;"/><path d="M20.013,35.678l-2.803,-1.579l0,-12.627l2.803,1.578l-0,12.628Z" style="fill:#8e9cf6;stroke:#000;stroke-width:0.5px;"/><path d="M22.815,21.472l0,12.627l-2.802,1.579l-0,-12.628l2.802,-1.578Z" style="fill:#31409c;stroke:#000;stroke-width:0.47px;"/></g><text x="36.458px" y="29.724px" style="font-family:'Montserrat-Bold', 'Montserrat';font-weight:700;font-size:15.75px;fill:#4b5dce;">FEA<tspan x="68.603px 78.147px " y="29.724px 29.724px ">TU</tspan>RIZE</text></svg>