<?xml version="1.0" encoding="UTF-8" standalone="no"?><!DOCTYPE svg PUBLIC "-//W3C//DTD SVG 1.1//EN" "http://www.w3.org/Graphics/SVG/1.1/DTD/svg11.dtd"><svg width="100%" height="100%" viewBox="0 0 526 100" version="1.1" xmlns="http://www.w3.org/2000/svg" xmlns:xlink="http://www.w3.org/1999/xlink" xml:space="preserve" xmlns:serif="http://www.serif.com/" style="fill-rule:evenodd;clip-rule:evenodd;stroke-linejoin:round;stroke-miterlimit:2;"><g id="Layer1"><path d="M151.755,6l33.935,-0l0,88l-88,0l0,-88l33.886,-0l-0,0.475c-0,5.571 4.516,10.089 10.09,10.089c5.571,0 10.089,-4.516 10.089,-10.089l0,-0.475Zm-33.624,47.424l6.689,31.158l5.896,-0l4.588,-21.205l0.112,-0l4.287,21.205l5.787,-0l7.433,-31.158l-5.72,-0l-4.538,21.465l-0.085,-0l-4.322,-21.465l-5.456,-0l-4.785,21.204l-0.072,0l-3.982,-21.204l-5.832,-0Zm41.368,-0l-7.544,31.158l5.86,-0l1.533,-6.934l10.473,0l1.986,6.934l6.016,-0l-9.13,-31.158l-9.194,-0Zm3.499,7.68l2.453,-0l2.921,11.431l-7.917,-0l2.543,-11.431Z" style="fill:#fff;fill-rule:nonzero;"/><path d="M262.353,6c24.284,0 44,19.716 44,44c0,24.284 -19.716,44 -44,44c-24.284,0 -44,-19.716 -44,-44c0,-24.284 19.716,-44 44,-44Zm-33.825,37.469c0.518,0.003 1.015,-0.206 1.375,-0.578c0.373,-0.359 0.582,-0.857 0.578,-1.375c0.001,-0.517 -0.207,-1.014 -0.578,-1.375c-0.357,-0.378 -0.855,-0.592 -1.375,-0.591c-0.521,-0.006 -1.021,0.209 -1.375,0.591c-0.364,0.365 -0.567,0.86 -0.564,1.375c-0.007,0.516 0.197,1.013 0.564,1.375c0.357,0.376 0.856,0.586 1.375,0.578Zm27.321,13.406l0,-25.066l-2.928,-0l-0,17.627c-0.027,1.231 0.033,2.463 0.178,3.685l-0.068,0c-0.156,-0.302 -0.495,-0.861 -1.018,-1.677l-12.54,-19.635l-3.809,-0l0,25.066l2.929,0l0,-18.123c0.031,-1.147 -0.015,-2.296 -0.137,-3.437l0.11,0c0.209,0.549 0.476,1.075 0.797,1.568l12.884,19.992l3.602,0Zm14.562,10.615l-0,-1.361c-0.253,-0.085 -0.518,-0.122 -0.784,-0.11c-0.475,-0.001 -0.934,0.17 -1.293,0.481c-0.414,0.366 -0.715,0.843 -0.866,1.375l0,-1.719l-1.375,0l0,8.25l1.375,0l0,-4.207c-0.043,-0.765 0.155,-1.525 0.564,-2.173c0.297,-0.477 0.813,-0.777 1.375,-0.797c0.354,-0.025 0.707,0.066 1.004,0.261Zm8.057,3.135l-0.014,-0.715c0.066,-1.045 -0.247,-2.08 -0.88,-2.915c-0.629,-0.713 -1.553,-1.098 -2.502,-1.045c-1.051,-0.03 -2.062,0.415 -2.75,1.21c-0.747,0.869 -1.136,1.99 -1.086,3.135c-0.07,1.142 0.288,2.27 1.003,3.163c0.703,0.766 1.712,1.179 2.75,1.127c1.017,0.051 2.024,-0.223 2.874,-0.784l0,-1.237c-0.724,0.587 -1.626,0.912 -2.557,0.921c-0.727,0.042 -1.438,-0.229 -1.953,-0.742c-0.49,-0.594 -0.74,-1.35 -0.701,-2.118l5.816,0Zm-1.375,-1.114l-4.455,0.014c0.074,-0.655 0.359,-1.268 0.811,-1.746c0.409,-0.437 0.984,-0.681 1.582,-0.674c0.573,-0.031 1.131,0.202 1.512,0.633c0.383,0.509 0.578,1.136 0.55,1.773Zm18.26,-35.048l0,-2.654l-17.421,-0l-0,2.654l7.205,-0l-0,22.412l2.929,0l-0,-22.412l7.287,-0Zm-35.461,40.136c1.128,0.034 2.217,-0.423 2.984,-1.251c0.771,-0.868 1.171,-2.004 1.113,-3.163c0.068,-1.142 -0.3,-2.268 -1.031,-3.149c-0.745,-0.781 -1.796,-1.198 -2.874,-1.141c-1.139,-0.051 -2.25,0.372 -3.066,1.169c-0.799,0.885 -1.211,2.054 -1.141,3.245c-0.056,1.125 0.334,2.227 1.086,3.066c0.752,0.813 1.822,1.26 2.929,1.224Zm0.096,-7.521c0.752,-0.04 1.481,0.276 1.966,0.852c0.499,0.689 0.742,1.53 0.688,2.379c0.056,0.844 -0.188,1.682 -0.688,2.365c-0.492,0.564 -1.219,0.869 -1.966,0.825c-0.763,0.031 -1.501,-0.282 -2.007,-0.853c-0.526,-0.651 -0.791,-1.475 -0.743,-2.31c-0.05,-0.861 0.214,-1.711 0.743,-2.392c0.501,-0.579 1.241,-0.899 2.007,-0.866Zm15.689,-10.203l0.014,-2.75l-10.34,0l-0,-8.69l9.047,0l0,-2.64l-9.047,0l-0,-8.332l9.707,-0l0,-2.654l-12.705,-0l0,25.066l13.324,0Zm-21.409,17.05l0.014,-1.279c-0.913,0.531 -1.956,0.798 -3.011,0.77c-1.147,0.047 -2.258,-0.411 -3.039,-1.251c-0.805,-0.931 -1.219,-2.139 -1.155,-3.369c-0.064,-1.298 0.38,-2.571 1.237,-3.547c0.825,-0.907 2.006,-1.41 3.232,-1.375c0.96,-0.015 1.909,0.222 2.75,0.687l-0,-1.375c-0.874,-0.349 -1.81,-0.513 -2.75,-0.481c-1.588,-0.051 -3.126,0.568 -4.235,1.705c-1.138,1.207 -1.739,2.825 -1.664,4.483c-0.058,1.514 0.475,2.994 1.485,4.125c1.025,1.071 2.465,1.647 3.946,1.581c1.102,0.038 2.197,-0.193 3.19,-0.674Z" style="fill:#fff;"/><path d="M427.7,35.705c-3.912,24.522 -25.19,42.802 -50.022,42.973c-2.446,0.094 -4.895,-0.054 -7.311,-0.443c-10.376,-1.762 -18.181,-10.608 -18.636,-21.123c0.105,-11.864 9.895,-21.567 21.759,-21.567c11.748,0 21.484,9.515 21.754,21.26c0.091,3.606 -1.471,6.77 -4.683,6.861c-3.43,0 -5.038,-2.448 -5.038,-5.747l-0,-9.167c0.003,-3.066 -2.506,-5.597 -5.572,-5.62l-7.685,-0c-0.031,-0.001 -0.061,-0.001 -0.092,-0.001c-7.338,0 -13.376,6.039 -13.376,13.377c-0,7.338 6.038,13.376 13.376,13.376c3.806,0 7.436,-1.624 9.973,-4.461l0.268,-0.401l0.27,0.445c1.875,2.548 4.909,3.992 8.069,3.842c5.737,-0.417 10.156,-5.403 9.88,-11.149c0.028,-2.385 -0.24,-4.765 -0.795,-7.085c-2.704,-12.435 -13.804,-21.381 -26.53,-21.381c-14.893,-0 -27.149,12.255 -27.149,27.149c0,0.037 0,0.074 0.001,0.111c0.177,14.692 12.103,26.777 26.792,27.149c14.688,0.371 2.013,0.183 4.281,0.131c11.029,-0.07 21.811,-3.287 31.074,-9.271c0.132,-0.092 0.264,0.092 0.176,0.225c-9.124,9.828 -22.134,15.148 -35.53,14.529c-0.194,0.004 -0.388,0.006 -0.582,0.006c-17.589,-0 -32.062,-14.474 -32.062,-32.062c-0,-0.28 0.004,-0.56 0.011,-0.84c0.004,-10.456 4.95,-20.317 13.328,-26.573c5.556,-4.091 12.273,-6.308 19.173,-6.329l10.314,-0c8.143,-0.006 15.918,-3.439 21.409,-9.452c0.057,-0.063 0.133,-0.107 0.217,-0.124c0.172,-0.037 0.349,0.04 0.439,0.191c0.044,0.074 0.064,0.16 0.056,0.247c-0.437,4.635 -1.98,9.098 -4.5,13.014c-0.038,0.068 -0.055,0.145 -0.048,0.223c0.012,0.157 0.116,0.293 0.265,0.346c0.073,0.026 0.152,0.031 0.227,0.013c9.648,-2.18 17.705,-8.823 21.682,-17.879c0.05,-0.08 0.119,-0.147 0.201,-0.193c0.167,-0.095 0.372,-0.095 0.539,-0c0.082,0.046 0.15,0.113 0.2,0.193c4.042,7.741 5.406,16.608 3.877,25.207Zm-47.301,12.916c0,-0 -7.473,0.016 -7.474,0.016c-4.401,0 -8.022,3.622 -8.022,8.023c-0,4.401 3.621,8.023 8.022,8.023c4.402,-0 8.023,-3.622 8.023,-8.023c0,-0 0,-7.49 0,-7.49c-0.015,-0.295 -0.253,-0.534 -0.549,-0.549Z" style="fill:#fff;fill-rule:nonzero;"/></g></svg>